<svg xmlns="http://www.w3.org/2000/svg" width="170.094" height="225.332" viewBox="0 0 170.094 225.332">
  <g id="Logo" transform="translate(-420.246 107.247)">
    <path id="File" d="M425.247-102.247V113.085H585.339V-52.262l-54.906-49.985-105.188.007Z" fill="none" stroke="#000" stroke-linejoin="round" stroke-width="10"/>
    <path id="Cursor" d="M31161.283,31154.43l52.93,17.348a5.468,5.468,0,0,1,.99,9.955,93.113,93.113,0,0,0-8.732,5.6l39.525,39.523a5.478,5.478,0,0,1,0,7.729l-11.453,11.455a5.482,5.482,0,0,1-7.734,0l-39.523-39.521c-.111.154-.221.309-.332.457a94.847,94.847,0,0,0-5.27,8.273,5.467,5.467,0,0,1-9.949-.986l-17.35-52.932a5.469,5.469,0,0,1,6.9-6.9Z" transform="translate(-30695.553 -31195.469)"/>
  </g>
</svg>
